HIERARCHY
ROOT Hips
{
  OFFSET 196.326 95.9168 97.7182
  CHANNELS 6 Xposition Yposition Zposition Zrotation Xrotation Yrotation
  JOINT LeftUpLeg
  {
    OFFSET 8.64259 1.95398 -2.38835
    CHANNELS 3 Zrotation Xrotation Yrotation
    JOINT LeftLeg
    {
      OFFSET 43.7702 0 0
      CHANNELS 3 Zrotation Xrotation Yrotation
      JOINT LeftFoot
      {
        OFFSET 40.6238 0 0
        CHANNELS 3 Zrotation Xrotation Yrotation
        JOINT LeftToeBase
        {
          OFFSET 12.7242 0 0
          CHANNELS 3 Zrotation Xrotation Yrotation
          End Site
          {
            OFFSET 0 0 0
          }
        }
      }
    }
  }
  JOINT RightUpLeg
  {
    OFFSET -8.2249 1.95398 -2.59336
    CHANNELS 3 Zrotation Xrotation Yrotation
    JOINT RightLeg
    {
      OFFSET 43.5653 0 0
      CHANNELS 3 Zrotation Xrotation Yrotation
      JOINT RightFoot
      {
        OFFSET 40.6238 0 0
        CHANNELS 3 Zrotation Xrotation Yrotation
        JOINT RightToeBase
        {
          OFFSET 12.7242 0 0
          CHANNELS 3 Zrotation Xrotation Yrotation
          End Site
          {
            OFFSET 0 0 0
          }
        }
      }
    }
  }
  JOINT Spine
  {
    OFFSET 0.165834 0.87714 6.61349
    CHANNELS 3 Zrotation Xrotation Yrotation
    JOINT Spine1
    {
      OFFSET 7.38963 1.71661e-005 0
      CHANNELS 3 Zrotation Xrotation Yrotation
      JOINT Spine2
      {
        OFFSET 11.9445 1.14441e-005 0
        CHANNELS 3 Zrotation Xrotation Yrotation
        JOINT Spine3
        {
          OFFSET 14.7254 4.19617e-005 0
          CHANNELS 3 Zrotation Xrotation Yrotation
          JOINT Spine4
          {
            OFFSET 10.9679 0 0
            CHANNELS 3 Zrotation Xrotation Yrotation
            JOINT RightShoulder
            {
              OFFSET 2.46616 -1.6653 3.69651
              CHANNELS 3 Zrotation Xrotation Yrotation
              JOINT RightArm
              {
                OFFSET 13.0012 0 0
                CHANNELS 3 Zrotation Xrotation Yrotation
                JOINT RightForeArm
                {
                  OFFSET 28.7848 1.52588e-005 0
                  CHANNELS 3 Zrotation Xrotation Yrotation
                  JOINT RightHand
                  {
                    OFFSET 26.5688 1.52588e-005 0
                    CHANNELS 3 Zrotation Xrotation Yrotation
                    End Site
                    {
                      OFFSET 0 0 0
                    }
                  }
                }
              }
            }
            JOINT LeftShoulder
            {
              OFFSET 2.38034 -1.29275 -3.75231
              CHANNELS 3 Zrotation Xrotation Yrotation
              JOINT LeftArm
              {
                OFFSET 16.3182 6.10351e-005 0
                CHANNELS 3 Zrotation Xrotation Yrotation
                JOINT LeftForeArm
                {
                  OFFSET 27.0901 0 0
                  CHANNELS 3 Zrotation Xrotation Yrotation
                  JOINT LeftHand
                  {
                    OFFSET 24.5451 1.52588e-005 0
                    CHANNELS 3 Zrotation Xrotation Yrotation
                    End Site
                    {
                      OFFSET 0 0 0
                    }
                  }
                }
              }
            }
            JOINT Neck
            {
              OFFSET 5.0226 -0.0266342 0
              CHANNELS 3 Zrotation Xrotation Yrotation
              JOINT Head
              {
                OFFSET 6.69363 2.86102e-005 0
                CHANNELS 3 Zrotation Xrotation Yrotation
                End Site
                {
                  OFFSET 0 0 0
                }
              }
            }
          }
        }
      }
    }
  }
}
MOTION
Frames:	11
Frame Time:	0.0416667
249.936 85.6941 -248.061 -92.4999 -39.4587 -84.7748 -165.545 10.1518 131.684 27.6459 26.3867 -95.6511 13.8062 7.26974 48.8605 43.7044 14.566 -12.47 177.931 38.7308 95.8147 -80.0901 -3.1476 -2.68197 134.882 -22.7826 0.339342 73.5825 61.8082 113.439 1.66203 8.14282 -90.367 10.6047 3.14146 -1.01327 -1.06293 3.09381 -1.15066 -23.6285 3.30061 -0.0212773 -3.61589 3.3006 -0.0212778 107.786 -77.7955 -75.5403 5.85042 -15.1808 26.9549 -71.3855 42.376 -97.1681 -19.1264 7.04731 -59.5407 -98.0004 -46.5166 65.6855 -35.0481 17.4862 24.2856 3.23185 2.73509 -58.0527 28.2757 2.00061 3.2508 3.66978 9.71852 -33.319 -4.88973 16.3146 46.4147 
248.972 86.7151 -247.354 -91.9014 -41.4741 -84.8915 -167.897 19.1665 121.915 33.7274 47.4206 -104.756 14.0782 -13.5375 50.675 53.3764 25.7266 -3.51429 177.946 35.3027 94.4507 -77.5405 -1.09995 -1.80868 137.06 -22.8059 0.809968 72.3492 61.0414 114.436 1.51263 8.3831 -90.4052 10.1221 2.82975 -1.04207 -1.54633 2.78114 -1.16569 -24.106 3.01199 -0.142715 -4.09333 3.012 -0.142721 88.4591 -76.6385 -97.6809 5.38481 -13.4004 20.7926 -71.8998 38.9197 -93.3094 -17.5795 5.7926 -57.2321 -102.253 -46.6832 59.394 -35.5707 14.0733 26.9337 1.5371 2.47011 -53.7263 33.0049 3.37903 6.32653 6.91407 4.50943 -26.004 1.51126 12.2256 33.4587 
248.247 88.4745 -247.487 -88.5056 -44.4607 -83.9489 -169.626 25.6189 98.2814 -10.8861 82.9487 -61.0855 15.1203 -41.0021 33.0058 65.5625 46.1153 11.1682 177.462 31.3984 92.2748 -72.6797 3.3958 0.0730307 139.411 -23.3436 1.41584 65.2503 56.8363 121.118 1.23343 8.56084 -90.3918 9.76238 2.28137 -0.9577 -1.907 2.237 -1.05722 -24.4579 2.46365 -0.227409 -4.44525 2.46366 -0.227416 82.5813 -68.2646 -106.467 10.6496 -10.7346 14.3437 -71.5535 34.0793 -90.9638 -17.4862 5.02702 -52.429 -102.594 -45.2882 58.2857 -38.9137 13.3282 28.6506 -7.01379 -3.74784 -53.3807 46.493 2.61947 2.40318 18.3289 -1.14461 -13.019 -1.58699 3.59851 18.0399 
247.035 87.5927 -246.483 -79.614 -46.5904 -78.4326 -172.855 35.8853 94.8567 -58.2061 70.5715 -13.9423 6.72868 -41.7754 18.4952 77.6782 54.1434 3.1638 177.164 31.0828 91.0881 -72.0206 11.9076 1.50728 144.585 -22.2953 2.3179 55.1876 45.676 128.797 0.987498 8.34762 -90.347 10.1854 1.80941 -0.841048 -1.48462 1.77067 -0.9199 -24.0295 1.97848 -0.258181 -4.01684 1.97853 -0.258174 82.0706 -57.0791 -110.4 19.7429 -8.3352 8.53473 -53.375 28.3874 -98.6194 -14.6454 2.80108 -35.1048 -100.356 -43.6517 60.973 -42.2948 12.5552 30.1254 -4.45439 -2.94609 -57.6545 41.6209 3.45484 4.9056 21.3169 -1.00261 -5.91993 1.43198 1.66871 10.0235 
243.306 88.5425 -242.499 -68.4113 -45.3886 -71.6717 -168.732 51.8274 87.5298 -68.7355 35.1826 -3.70941 43.4226 -7.19942 26.7864 56.7536 33.4328 6.90574 177.625 26.5067 90.8475 -62.3009 21.5493 0.71696 145.388 -21.5901 2.40103 50.5969 34.2788 127.197 0.948254 7.84647 -90.1533 11.1859 1.8162 -0.483021 -0.483949 1.79314 -0.562516 -23.0293 1.87737 0.0853317 -3.01664 1.87735 0.0853321 85.7695 -45.4507 -108.724 28.9066 -9.92166 1.46255 -34.7243 19.1038 -101.035 -13.6089 -0.847141 2.05868 -97.3275 -41.916 65.001 -45.3165 11.983 30.4012 1.69458 -0.304373 -60.862 31.7352 4.43154 10.2977 24.6638 -0.393568 0.498956 0.82962 -0.330038 3.38283 
237.789 90.6753 -236.467 -64.1952 -41.8418 -71.9487 -162.986 56.0385 81.9614 -58.2655 18.132 -4.3072 56.6507 0.281839 9.23987 55.6435 31.4094 5.16029 178.31 13.9235 89.2146 -41.6626 25.7821 -3.1905 138.251 -23.6455 1.49692 45.3474 21.3683 124.541 1.24223 7.44573 -89.6158 11.9769 2.65121 0.481987 0.308635 2.66986 0.364746 -22.244 2.38372 1.25691 -2.23138 2.38372 1.2569 87.462 -40.1429 -107.738 33.7377 -11.4559 -0.529381 -30.8527 10.379 -97.6901 -16.1011 -1.46982 6.30183 -95.9406 -40.2194 66.5813 -48.7066 11.8272 32.544 -3.51306 -3.20569 -63.2235 40.0395 3.69459 5.83174 24.5567 -0.510081 1.67988 1.21159 -1.00241 1.16275 
232.356 92.169 -229.397 -64.1306 -42.116 -71.3828 -163.322 55.2249 81.823 -46.5268 20.0381 -6.58081 57.669 2.69485 15.157 62.8704 34.8524 -4.19901 177.48 -1.9997 91.0483 -20.2787 34.0969 -3.63894 119.248 -24.2474 -2.13465 37.2783 5.90918 124.649 1.40594 7.29215 -89.5564 12.2854 3.00458 0.548457 0.6179 3.02579 0.41556 -21.9399 2.70074 1.42669 -1.92731 2.70074 1.42668 88.1448 -39.0976 -106.924 35.0047 -13.8694 1.15163 -31.135 9.33714 -99.8646 -20.5814 -1.78479 5.91049 -96.8275 -39.021 64.661 -49.6407 9.01936 34.9626 -5.56586 -5.99179 -64.9369 16.976 -0.0946579 -16.0121 22.629 -0.703017 0.983424 2.28328 -0.883654 1.49708 
226.989 93.3275 -221.822 -65.5349 -44.1953 -70.4988 -164.611 50.7294 82.5979 -39.9249 16.8412 -6.81718 58.056 3.01982 14.8341 60.5759 35.4233 1.98527 178.026 3.05733 91.2242 -34.1263 43.6976 -6.22461 69.3784 -6.54445 -2.29973 13.8384 -26.542 90.7828 1.30391 7.28765 -89.6667 12.2974 2.74944 0.355108 0.629316 2.7624 0.23365 -21.9258 2.51554 1.1655 -1.91312 2.51552 1.1655 88.475 -38.9735 -106.392 35.1702 -18.145 2.55745 -31.0389 9.04388 -98.7847 -23.5285 -2.20639 6.88163 -96.3752 -38.2891 65.1138 -49.9299 7.17525 34.7116 -3.172 -5.99705 -66.6961 6.47389 -1.59333 -20.3118 20.7904 -0.704695 0.0318172 2.43649 -0.554571 1.72143 
221.477 92.9723 -215.086 -67.8526 -44.9777 -70.4967 -164.198 46.48 83.757 -41.2944 15.5346 -6.98424 57.64 2.16503 13.0974 57.4337 31.7006 1.19567 179.878 4.89821 92.6872 -45.3513 26.9076 -4.96438 39.8218 -0.655961 0.237275 26.6144 -4.90845 52.6374 1.21357 7.25121 -89.7473 12.3718 2.53159 0.216729 0.703287 2.53867 0.105012 -21.8494 2.34935 0.967959 -1.83674 2.34936 0.967972 87.4058 -40.7582 -107.627 35.0278 -20.0092 6.40278 -30.8823 8.3268 -95.3711 -21.361 -1.76214 5.39782 -96.0304 -38.885 65.9215 -48.0061 5.36232 33.0533 -1.66939 -4.43197 -69.2067 32.3948 2.22459 3.01564 17.6553 -0.335468 -1.03723 3.85205 0.0690216 0.983191 
216.166 91.5732 -208.535 -70.072 -46.4057 -73.3117 -164.36 40.2842 82.1264 -45.3663 13.572 -6.80863 62.0239 9.23617 19.3741 56.7511 22.3347 -24.2467 179.528 8.54279 90.8014 -56.4064 15.7958 -4.90031 40.4204 0.150395 0.837455 37.3535 1.21733 25.9606 0.990472 7.26702 -89.5039 12.334 2.20386 0.740902 0.664705 2.2343 0.643142 -21.8804 1.87929 1.36917 -1.86775 1.87926 1.36915 86.0906 -43.5299 -108.862 35.2723 -20.4987 11.3246 -29.5292 5.7159 -91.2532 -21.726 -2.03815 6.77198 -97.1659 -40.0481 64.5222 -44.3511 4.36261 30.7648 -2.15513 -4.73915 -71.4897 33.5693 1.9071 1.78999 14.3368 -0.278262 -2.51803 5.63803 0.548661 1.44435 
211.288 90.5071 -202.264 -71.8247 -45.9188 -75.4489 -165.197 34.6046 81.7492 -48.1167 12.0266 -5.97269 64.4734 14.5424 23.5503 61.7486 25.3524 -25.9443 -179.881 18.389 90.4273 -69.0206 18.638 -5.55989 48.5487 -2.35203 -1.35497 34.1354 -0.0187562 21.1516 0.823844 7.29546 -89.2513 12.2718 1.99213 1.27089 0.601867 2.04614 1.18196 -21.9364 1.51813 1.81085 -1.92373 1.51813 1.81084 85.0778 -46.3702 -109.507 35.6911 -19.6665 15.361 -27.0745 1.51931 -85.8833 -23.2432 -1.93898 5.51867 -97.8718 -41.4293 63.9427 -39.476 4.07099 26.5341 1.73852 -3.37819 -73.957 33.272 2.44742 3.41546 13.5077 0.452331 -4.05846 6.63145 1.65407 1.44237 
